PathFileType	4	(X/Y/Z)	s11c0201.trc
DataRate	CameraRate	NumFrames	NumMarkers	Units	OrigDataRate	OrigDataStartFrame	OrigNumFrames
200	200	6	48	mm	200	500	2000
Frame#	Time	racr			lacr			c7			jug			rlel			rdr			llel			ldr			s2			lic			ric			lasi			rasi			rpsi			lpsi			rgt			lgt			rth1			rth2			rth3			rth4			rlfc			rmfc			rsh1			rsh2			rsh3			rsh4			rlmal			rcal			rtoe			rmt5			lth1			lth2			lth4			lth3			llfc			lmfc			llmal			lcal			lmt5			lsh1			lsh2			lsh3			lsh4			ltoe			SBIKE			LBIKE			RBIKE			
		X1	Y1	Z1	X2	Y2	Z2	X3	Y3	Z3	X4	Y4	Z4	X5	Y5	Z5	X6	Y6	Z6	X7	Y7	Z7	X8	Y8	Z8	X9	Y9	Z9	X10	Y10	Z10	X11	Y11	Z11	X12	Y12	Z12	X13	Y13	Z13	X14	Y14	Z14	X15	Y15	Z15	X16	Y16	Z16	X17	Y17	Z17	X18	Y18	Z18	X19	Y19	Z19	X20	Y20	Z20	X21	Y21	Z21	X22	Y22	Z22	X23	Y23	Z23	X24	Y24	Z24	X25	Y25	Z25	X26	Y26	Z26	X27	Y27	Z27	X28	Y28	Z28	X29	Y29	Z29	X30	Y30	Z30	X31	Y31	Z31	X32	Y32	Z32	X33	Y33	Z33	X34	Y34	Z34	X35	Y35	Z35	X36	Y36	Z36	X37	Y37	Z37	X38	Y38	Z38	X39	Y39	Z39	X40	Y40	Z40	X41	Y41	Z41	X42	Y42	Z42	X43	Y43	Z43	X44	Y44	Z44	X45	Y45	Z45	X46	Y46	Z46	X47	Y47	Z47	X48	Y48	Z48	
500	2.5000	511.966284	1364.010670	-90.138283	513.922274	1317.803572	-409.759489	459.158184	1450.748912	-263.275002	467.455049	1269.053597	-248.657435	534.209349	1113.966901	45.089510	754.876762	973.276259	-51.689234	461.469839	1060.221863	-588.365779	747.339203	957.540461	-520.925672	-109.884963	1214.938235	-278.697993	70.714646	1201.866871	-425.670455	97.460026	1225.619787	-58.280889	131.360234	1150.717765	-428.896033	129.891409	1155.483970	-91.623217	-60.634186	1286.529007	-219.071991	-66.635002	1278.420421	-313.364278	58.016578	1069.271695	-56.150745	26.707690	1099.704947	-477.089666	163.226794	936.958043	-102.737905	219.458604	896.570594	-71.422396	251.315826	816.655870	-89.154928	247.116367	919.009447	-81.754458	313.323597	729.824291	-110.127220	291.091367	704.203988	-233.182134	287.778037	573.628473	-84.887352	296.396330	487.258605	-99.850603	263.208483	406.145397	-95.536092	316.758939	486.120939	-135.093843	233.849247	267.056484	-99.541699	170.067488	239.095756	-142.997300	456.985049	242.069109	-151.524823	395.021901	205.424472	-78.865052	159.174163	1036.146529	-491.765117	243.796440	1020.908914	-490.982617	260.613873	1052.182046	-479.991636	312.008337	962.213623	-493.674150	424.765400	884.648040	-471.482163	442.055556	866.146582	-365.760522	110.269550	604.462273	-420.875586	46.518920	608.809072	-380.629804	157.251313	434.387921	-449.277401	335.821320	800.560921	-481.568624	293.045412	729.080356	-459.797186	217.188603	685.037099	-449.420825	317.892152	710.078179	-437.371420	243.334008	384.179830	-386.380722	-215.498308	957.382122	-257.724673	-17.815131	80.869258	-461.086979	-17.882108	80.817988	-62.241815	
501	2.5050	514.160481	1363.245416	-91.850439	511.972016	1320.731794	-414.316569	459.490665	1452.347838	-265.228861	468.551754	1271.129959	-252.792765	534.193717	1113.702327	45.549158	755.201788	973.301821	-51.947758	459.791645	1059.473112	-587.045021	747.481423	957.515912	-521.804535	-109.271648	1215.539691	-274.500848	72.134124	1205.474155	-427.898966	100.411604	1225.106723	-57.151561	130.635393	1154.243138	-427.114847	131.723412	1155.152373	-90.764368	-59.931723	1286.940218	-216.095603	-66.259163	1279.237776	-309.544615	57.670441	1067.507946	-55.226103	26.730038	1103.359867	-476.429794	159.684809	931.965949	-101.361227	215.285913	891.509896	-70.045949	245.487493	810.942836	-87.939879	243.456474	913.259019	-80.569947	305.731354	723.726566	-109.199885	282.526681	697.637290	-232.211861	279.586914	567.905968	-83.839777	288.279770	481.445329	-98.779175	254.922081	400.365996	-94.564823	309.037422	480.233530	-133.768939	226.703472	261.015244	-99.125732	162.849615	233.590730	-142.743909	449.928102	234.050793	-151.562890	387.552158	198.017544	-78.698447	160.448795	1041.472450	-491.621337	245.167557	1027.657976	-490.606662	261.447019	1059.123805	-479.339432	314.358552	970.081797	-493.689196	429.265979	894.662109	-471.837457	445.647119	877.967832	-361.780374	116.657653	612.142579	-420.909481	52.897978	615.733502	-380.851113	164.915900	442.030118	-449.145050	341.473323	810.187776	-482.071851	299.254831	738.472518	-460.158478	223.754012	693.615549	-449.378283	324.252194	719.635747	-437.878064	251.247882	391.944356	-385.742823	-215.451715	957.455124	-257.632295	-17.807397	80.882563	-461.080168	-17.865891	80.812914	-62.228008	
502	2.5100	516.322849	1362.304898	-93.663157	509.903251	1323.744516	-418.974948	459.779762	1453.898473	-267.022393	469.585627	1273.088431	-256.992263	534.218260	1113.571252	45.776365	755.591088	973.364395	-52.436174	458.421825	1059.033294	-586.133335	747.618544	957.558967	-522.361965	-108.675502	1216.223017	-271.883195	74.065448	1209.254526	-430.603956	102.483988	1224.528252	-56.307074	129.796904	1157.504174	-425.204425	131.968638	1154.534513	-91.220455	-58.932506	1287.261160	-212.553801	-66.001062	1280.308663	-306.894097	57.221509	1065.550269	-54.179453	26.806291	1107.037856	-475.989171	156.103612	927.530348	-99.718837	211.239408	886.700851	-68.467214	239.836984	805.616832	-86.486284	239.733636	908.046569	-79.071336	298.602612	718.094617	-108.158414	276.595471	691.338620	-229.631219	271.470095	562.484951	-82.690146	280.072966	476.112341	-97.497297	246.544428	395.109390	-93.593875	301.135156	474.826800	-132.235174	219.279017	255.489677	-98.841094	155.376520	228.641695	-142.493055	442.283262	226.773630	-151.376678	379.738036	191.032522	-78.577145	161.561489	1046.602825	-491.401274	246.463360	1034.097553	-490.168710	262.198150	1065.845130	-478.679986	316.425926	977.817580	-493.888498	433.514635	904.280197	-472.480011	448.482444	890.731259	-355.528649	123.091690	619.336794	-421.073355	59.101175	621.885783	-381.033944	173.086019	449.352864	-449.192942	346.909322	819.690734	-482.518924	305.335087	747.548697	-460.721486	230.246111	702.261376	-449.811539	330.539928	728.988327	-438.357915	260.187486	400.327366	-385.820483	-214.703099	957.088687	-257.881985	-17.801979	80.937278	-461.051499	-17.904622	80.822569	-62.128875	
503	2.5150	518.394958	1361.363087	-95.533792	507.684335	1326.759585	-423.734377	460.301468	1455.338326	-268.871557	470.674623	1274.733846	-261.139635	534.279848	1113.524054	45.971676	756.037357	973.527117	-53.164398	457.218680	1058.733523	-585.211902	747.741020	957.737696	-522.611779	-107.830571	1216.842141	-268.424888	76.384538	1213.152859	-433.660884	105.755595	1223.655466	-55.354273	128.897056	1160.530285	-423.203027	134.540594	1153.904653	-90.229176	-57.867748	1287.531608	-209.072031	-65.782299	1281.133186	-303.595256	56.720200	1063.498971	-52.984713	27.218923	1111.188160	-476.124429	152.601885	923.461353	-97.757661	207.219112	882.181708	-66.619779	234.416942	800.575006	-84.759676	236.100764	903.179103	-77.349725	291.918634	712.975493	-107.041408	269.198391	686.526738	-228.626435	263.590137	557.569012	-81.373145	272.046362	471.205302	-96.219998	238.175687	390.281519	-92.706945	293.493109	469.876890	-130.637350	211.564834	250.746502	-98.575655	147.567609	224.569932	-142.320236	434.716074	219.121457	-151.435153	371.524509	184.420668	-78.447106	162.647048	1051.544464	-491.076483	247.649729	1040.400447	-489.719904	262.870202	1072.371174	-478.083664	318.526945	985.372837	-494.046539	437.552338	913.950451	-472.471843	451.104632	903.326226	-349.222941	129.594152	625.903538	-421.263882	65.491518	627.333323	-381.353162	181.499604	456.148072	-449.344578	352.295001	829.267296	-483.332144	311.227068	756.483617	-461.273056	236.586805	710.452407	-450.288273	336.573517	738.097382	-439.073306	269.143810	408.306048	-385.925801	-214.663665	957.149999	-257.726470	-17.798394	80.964861	-461.055376	-17.837164	80.847133	-62.198024	
504	2.5200	520.323241	1360.255151	-97.509979	505.351601	1329.837616	-428.501612	460.743987	1456.347043	-271.153385	471.711237	1276.115942	-265.327115	534.384791	1113.568825	46.072483	756.559153	973.843975	-54.232538	456.150684	1058.512322	-584.303391	747.904166	957.976638	-522.396195	-106.838149	1216.614450	-265.371613	78.967311	1217.113785	-436.945208	109.076809	1222.578996	-54.786961	128.035387	1163.218769	-421.195736	137.452408	1153.155696	-89.516739	-55.509422	1286.749921	-206.504829	-65.194428	1281.579440	-300.252015	56.199832	1061.355947	-51.623272	27.164124	1114.541961	-475.638007	149.116372	919.626111	-95.289688	203.369254	877.998373	-64.519192	229.208442	795.887426	-82.851615	232.561926	898.556124	-75.470232	285.820360	708.249074	-105.813781	262.485991	682.338090	-227.237478	256.142094	553.304743	-80.057007	264.231820	467.031938	-95.151855	229.997397	386.207669	-92.058920	285.969624	465.608442	-129.365854	203.689868	246.623223	-98.362454	139.589365	221.466504	-142.485404	426.485523	212.943823	-151.131759	363.030136	178.495107	-78.303887	163.649787	1056.342264	-490.727414	248.726331	1046.489064	-489.320753	263.476637	1078.651207	-477.535799	320.440444	992.620578	-494.283669	441.257834	923.617418	-474.010473	454.056814	914.642159	-345.080781	136.215887	631.807658	-421.590336	71.862618	632.183561	-381.693830	190.090093	462.413825	-449.506673	357.209903	838.500530	-483.909860	316.954781	765.138276	-461.857493	242.825762	718.326095	-450.716605	342.512003	747.060093	-439.837755	278.489022	415.629126	-385.947517	-214.594064	957.242472	-257.597303	-17.739885	80.933678	-461.135660	-17.844929	80.844994	-62.205688	
505	2.5250	522.106077	1359.307502	-100.066852	502.827579	1332.880070	-433.212125	461.106072	1457.128206	-273.366588	472.507404	1277.492929	-269.582121	534.614689	1113.689476	46.122475	757.248085	974.120094	-55.564283	455.270795	1058.418321	-583.357517	748.105473	958.498584	-521.966620	-106.275303	1217.126938	-261.860870	81.689673	1221.082424	-440.332416	112.325568	1221.228988	-54.322884	127.432539	1165.968481	-419.787052	140.437944	1152.336335	-88.868075	-54.684511	1287.006914	-203.395734	-64.895505	1282.255405	-297.025445	55.680744	1059.216193	-50.269534	27.095268	1117.681709	-475.061583	145.859683	916.160371	-92.659099	199.810899	874.153163	-62.293915	224.305513	791.764179	-80.760578	229.243897	894.317422	-73.426996	280.148312	703.924386	-104.423011	256.970734	679.043529	-226.382530	249.110276	549.740958	-78.946094	257.028562	463.590291	-94.230267	222.201413	382.806732	-91.529585	278.216938	461.891044	-127.868364	195.639291	243.237643	-98.336693	131.433093	218.907640	-142.607038	417.868974	206.400304	-150.703669	354.192878	173.090062	-78.194593	164.510891	1061.071784	-490.318087	249.700157	1052.402157	-488.990493	263.979455	1084.702564	-476.999190	322.191967	999.627283	-494.432113	444.254676	931.177503	-475.479147	457.882152	923.568483	-345.319764	142.899372	637.005877	-421.888655	78.471686	636.225789	-381.878668	199.021163	468.035255	-449.761813	361.811541	847.483985	-484.366743	322.468153	773.496680	-462.475680	248.933054	725.797804	-451.126862	348.337313	755.554308	-440.599429	288.013989	422.733527	-386.038734	-214.583624	957.258590	-257.431937	-17.737449	80.951821	-461.126201	-17.880025	80.878654	-62.101369	
